<svg width="183" height="50" viewBox="0 0 183 50" fill="none" xmlns="http://www.w3.org/2000/svg">
<path d="M13.6787 11.9049C10.6463 12.4396 9.32983 16.0565 11.3091 18.4153L20.3353 29.1723C22.3145 31.5311 26.1051 30.8627 27.1582 27.9692L31.9609 14.7739C33.0141 11.8804 30.54 8.93184 27.5076 9.46654L13.6787 11.9049Z" fill="white"/>
<path d="M46.7165 37.7895C49.7489 37.2548 51.0654 33.6379 49.0861 31.2791L40.0599 20.5222C38.0807 18.1634 34.2901 18.8317 33.237 21.7252L28.4343 34.9206C27.3811 37.8141 29.8552 40.7626 32.8876 40.2279L46.7165 37.7895Z" fill="white"/>
<path d="M67.6253 35.8473V14.9673H72.3353V35.8473H67.6253ZM60.9953 18.7773V14.6673H78.9653V18.7773H60.9953ZM78.275 35.8473V21.2673H82.865V35.8473H78.275ZM82.865 27.8373L80.945 26.3373C81.325 24.6373 81.965 23.3173 82.865 22.3773C83.765 21.4373 85.015 20.9673 86.615 20.9673C87.315 20.9673 87.925 21.0773 88.445 21.2973C88.985 21.4973 89.455 21.8173 89.855 22.2573L87.125 25.7073C86.925 25.4873 86.675 25.3173 86.375 25.1973C86.075 25.0773 85.735 25.0173 85.355 25.0173C84.595 25.0173 83.985 25.2573 83.525 25.7373C83.085 26.1973 82.865 26.8973 82.865 27.8373ZM96.7576 36.1473C95.4176 36.1473 94.2176 35.8173 93.1576 35.1573C92.1176 34.4973 91.2876 33.5973 90.6676 32.4573C90.0676 31.3173 89.7676 30.0173 89.7676 28.5573C89.7676 27.0973 90.0676 25.7973 90.6676 24.6573C91.2876 23.5173 92.1176 22.6173 93.1576 21.9573C94.2176 21.2973 95.4176 20.9673 96.7576 20.9673C97.7376 20.9673 98.6176 21.1573 99.3976 21.5373C100.198 21.9173 100.848 22.4473 101.348 23.1273C101.848 23.7873 102.128 24.5473 102.188 25.4073V31.7073C102.128 32.5673 101.848 33.3373 101.348 34.0173C100.868 34.6773 100.228 35.1973 99.4276 35.5773C98.6276 35.9573 97.7376 36.1473 96.7576 36.1473ZM97.6876 32.0073C98.6676 32.0073 99.4576 31.6873 100.058 31.0473C100.658 30.3873 100.958 29.5573 100.958 28.5573C100.958 27.8773 100.818 27.2773 100.538 26.7573C100.278 26.2373 99.8976 25.8373 99.3976 25.5573C98.9176 25.2573 98.3576 25.1073 97.7176 25.1073C97.0776 25.1073 96.5076 25.2573 96.0076 25.5573C95.5276 25.8373 95.1376 26.2373 94.8376 26.7573C94.5576 27.2773 94.4176 27.8773 94.4176 28.5573C94.4176 29.2173 94.5576 29.8073 94.8376 30.3273C95.1176 30.8473 95.5076 31.2573 96.0076 31.5573C96.5076 31.8573 97.0676 32.0073 97.6876 32.0073ZM100.778 35.8473V31.9173L101.468 28.3773L100.778 24.8373V21.2673H105.278V35.8473H100.778ZM113.099 35.8473L106.919 21.2673H111.869L116.069 33.4173H113.909L118.109 21.2673H122.969L116.789 35.8173L113.099 35.8473ZM131.413 36.1773C129.833 36.1773 128.423 35.8573 127.183 35.2173C125.963 34.5573 125.003 33.6473 124.303 32.4873C123.603 31.3273 123.253 30.0173 123.253 28.5573C123.253 27.0973 123.593 25.7973 124.273 24.6573C124.973 23.4973 125.913 22.5873 127.093 21.9273C128.273 21.2673 129.603 20.9373 131.083 20.9373C132.523 20.9373 133.793 21.2473 134.893 21.8673C135.993 22.4873 136.853 23.3473 137.473 24.4473C138.113 25.5473 138.433 26.8073 138.433 28.2273C138.433 28.4873 138.413 28.7673 138.373 29.0673C138.353 29.3473 138.303 29.6773 138.223 30.0573L125.653 30.0873V26.9373L136.273 26.9073L134.293 28.2273C134.273 27.3873 134.143 26.6973 133.903 26.1573C133.663 25.5973 133.303 25.1773 132.823 24.8973C132.363 24.5973 131.793 24.4473 131.113 24.4473C130.393 24.4473 129.763 24.6173 129.223 24.9573C128.703 25.2773 128.293 25.7373 127.993 26.3373C127.713 26.9373 127.573 27.6673 127.573 28.5273C127.573 29.3873 127.723 30.1273 128.023 30.7473C128.343 31.3473 128.783 31.8173 129.343 32.1573C129.923 32.4773 130.603 32.6373 131.383 32.6373C132.103 32.6373 132.753 32.5173 133.333 32.2773C133.913 32.0173 134.423 31.6373 134.863 31.1373L137.383 33.6573C136.663 34.4973 135.793 35.1273 134.773 35.5473C133.753 35.9673 132.633 36.1773 131.413 36.1773ZM140.648 35.8473V21.2673H145.238V35.8473H140.648ZM145.238 27.8373L143.318 26.3373C143.698 24.6373 144.338 23.3173 145.238 22.3773C146.138 21.4373 147.388 20.9673 148.988 20.9673C149.688 20.9673 150.298 21.0773 150.818 21.2973C151.358 21.4973 151.828 21.8173 152.228 22.2573L149.498 25.7073C149.298 25.4873 149.048 25.3173 148.748 25.1973C148.448 25.0773 148.108 25.0173 147.728 25.0173C146.968 25.0173 146.358 25.2573 145.898 25.7373C145.458 26.1973 145.238 26.8973 145.238 27.8373ZM158.439 36.2073C157.579 36.2073 156.729 36.0973 155.889 35.8773C155.069 35.6573 154.299 35.3473 153.579 34.9473C152.879 34.5273 152.279 34.0473 151.779 33.5073L154.389 30.8673C154.869 31.3873 155.439 31.7973 156.099 32.0973C156.759 32.3773 157.479 32.5173 158.259 32.5173C158.799 32.5173 159.209 32.4373 159.489 32.2773C159.789 32.1173 159.939 31.8973 159.939 31.6173C159.939 31.2573 159.759 30.9873 159.399 30.8073C159.059 30.6073 158.619 30.4373 158.079 30.2973C157.539 30.1373 156.969 29.9673 156.369 29.7873C155.769 29.6073 155.199 29.3573 154.659 29.0373C154.119 28.7173 153.679 28.2773 153.339 27.7173C152.999 27.1373 152.829 26.4073 152.829 25.5273C152.829 24.5873 153.069 23.7773 153.549 23.0973C154.029 22.3973 154.709 21.8473 155.589 21.4473C156.469 21.0473 157.499 20.8473 158.679 20.8473C159.919 20.8473 161.059 21.0673 162.099 21.5073C163.159 21.9273 164.019 22.5573 164.679 23.3973L162.069 26.0373C161.609 25.4973 161.089 25.1173 160.509 24.8973C159.949 24.6773 159.399 24.5673 158.859 24.5673C158.339 24.5673 157.949 24.6473 157.689 24.8073C157.429 24.9473 157.299 25.1573 157.299 25.4373C157.299 25.7373 157.469 25.9773 157.809 26.1573C158.149 26.3373 158.589 26.4973 159.129 26.6373C159.669 26.7773 160.239 26.9473 160.839 27.1473C161.439 27.3473 162.009 27.6173 162.549 27.9573C163.089 28.2973 163.529 28.7573 163.869 29.3373C164.209 29.8973 164.379 30.6373 164.379 31.5573C164.379 32.9773 163.839 34.1073 162.759 34.9473C161.699 35.7873 160.259 36.2073 158.439 36.2073ZM174.069 36.1773C172.489 36.1773 171.079 35.8573 169.839 35.2173C168.619 34.5573 167.659 33.6473 166.959 32.4873C166.259 31.3273 165.909 30.0173 165.909 28.5573C165.909 27.0973 166.249 25.7973 166.929 24.6573C167.629 23.4973 168.569 22.5873 169.749 21.9273C170.929 21.2673 172.259 20.9373 173.739 20.9373C175.179 20.9373 176.449 21.2473 177.549 21.8673C178.649 22.4873 179.509 23.3473 180.129 24.4473C180.769 25.5473 181.089 26.8073 181.089 28.2273C181.089 28.4873 181.069 28.7673 181.029 29.0673C181.009 29.3473 180.959 29.6773 180.879 30.0573L168.309 30.0873V26.9373L178.929 26.9073L176.949 28.2273C176.929 27.3873 176.799 26.6973 176.559 26.1573C176.319 25.5973 175.959 25.1773 175.479 24.8973C175.019 24.5973 174.449 24.4473 173.769 24.4473C173.049 24.4473 172.419 24.6173 171.879 24.9573C171.359 25.2773 170.949 25.7373 170.649 26.3373C170.369 26.9373 170.229 27.6673 170.229 28.5273C170.229 29.3873 170.379 30.1273 170.679 30.7473C170.999 31.3473 171.439 31.8173 171.999 32.1573C172.579 32.4773 173.259 32.6373 174.039 32.6373C174.759 32.6373 175.409 32.5173 175.989 32.2773C176.569 32.0173 177.079 31.6373 177.519 31.1373L180.039 33.6573C179.319 34.4973 178.449 35.1273 177.429 35.5473C176.409 35.9673 175.289 36.1773 174.069 36.1773Z" fill="white"/>
</svg>
